# File created by Blade
# Date/Time:  Tue Sep 30 19:10:59 2014
#---------------------------------------------------------
:version 1.10
:name HOM
:units
  mass 1.0
  length 1.000000
  angle deg
:documentation
     Acclaim Skeleton File
:root
   axis xyz
   order TX TY TZ RX RY RZ
   position 0.000000 0.000000 0.000000
   orientation 0 0 0
:bonedata
   begin
      id 1
      name Spine_dum
      direction 0.000000 1.000000 0.000000
      length 7.508948
      axis 0.0 0.0 0.0 xyz
   end
   begin
      id 2
      name LeftUpLeg_dum
      direction 1.000000 0.000000 0.000000
      length 3.000560
      axis 0.0 0.0 0.0 xyz
   end
   begin
      id 3
      name RightUpLeg_dum
      direction -1.000000 0.000000 0.000000
      length 3.000560
      axis 0.0 0.0 0.0 xyz
   end
   begin
      id 4
      name Spine
      direction 0.000000 1.000000 0.000000
      length 0.000000
      axis 0.0 0.0 0.0 xyz
      dof rx ry rz
   end
   begin
      id 5
      name Spine_dum1
      direction 0.000000 1.000000 0.000000
      length 13.861154
      axis 0.0 0.0 0.0 xyz
   end
   begin
      id 6
      name Spine_dum2
      direction 0.000000 1.000000 0.000000
      length 8.204781
      axis 0.0 0.0 0.0 xyz
   end
   begin
      id 7
      name Spine_dum3
      direction 0.000000 1.000000 0.000000
      length 8.204781
      axis 0.0 0.0 0.0 xyz
   end
   begin
      id 8
      name Head
      direction 0.000000 1.000000 0.000000
      length 4.527550
      axis 0.0 0.0 0.0 xyz
      dof rx ry rz
   end
   begin
      id 9
      name LeftShoulder
      direction 1.000000 0.000000 0.000000
      length 6.635956
      axis 0.0 0.0 -90.0 xyz
      dof rx ry rz
   end
   begin
      id 10
      name LeftArm
      direction 1.000000 0.000000 0.000000
      length 10.274218
      axis 0.0 0.0 -90.0 xyz
      dof rx ry rz
   end
   begin
      id 11
      name LeftForeArm
      direction 1.000000 0.000000 0.000000
      length 8.522147
      axis 0.0 0.0 -90.0 xyz
      dof ry rz rx
   end
   begin
      id 12
      name LeftHand
      direction 0.000000 0.000000 0.000000
      length 0.000000
      axis 0.0 0.0 -90.0 xyz
      dof rx ry rz
   end
   begin
      id 13
      name LeftHand_dum1
      direction 0.000000 0.000000 0.000000
      length 0.000000
      axis 0.0 0.0 -90.0 xyz
   end
   begin
      id 14
      name LeftHand_dum2
      direction 1.000000 0.000000 0.000000
      length 3.937000
      axis 0.0 0.0 -90.0 xyz
   end
   begin
      id 15
      name LeftHandThumb1
      direction 0.000000 0.000000 1.000000
      length 3.937000
      axis 0.0 0.0 -90.0 xyz
      dof rx rz ry
   end
   begin
      id 16
      name RightShoulder
      direction -1.000000 0.000000 0.000000
      length 6.635956
      axis 0.0 0.0 90.0 xyz
      dof rx ry rz
   end
   begin
      id 17
      name RightArm
      direction -1.000000 0.000000 0.000000
      length 10.274218
      axis 0.0 0.0 90.0 xyz
      dof rx ry rz
   end
   begin
      id 18
      name RightForeArm
      direction -1.000000 0.000000 0.000000
      length 8.522147
      axis 0.0 0.0 90.0 xyz
      dof ry rz rx
   end
   begin
      id 19
      name RightHand
      direction 0.000000 0.000000 0.000000
      length 0.000000
      axis 0.0 0.0 90.0 xyz
      dof rx ry rz
   end
   begin
      id 20
      name RightHand_dum1
      direction 0.000000 0.000000 0.000000
      length 0.000000
      axis 0.0 0.0 90.0 xyz
   end
   begin
      id 21
      name RightHand_dum2
      direction -1.000000 0.000000 0.000000
      length 3.937000
      axis 0.0 0.0 90.0 xyz
   end
   begin
      id 22
      name RightHandThumb1
      direction 0.000000 0.000000 1.000000
      length 3.937000
      axis 0.0 0.0 90.0 xyz
      dof rx rz ry
   end
   begin
      id 23
      name LeftUpLeg
      direction 0.000000 -1.000000 0.000000
      length 16.490845
      axis 0.0 0.0 0.0 xyz
      dof rx ry rz
   end
   begin
      id 24
      name LeftLeg
      direction 0.000000 -1.000000 0.000000
      length 14.556576
      axis 0.0 0.0 0.0 xyz
      dof rx ry rz
   end
   begin
      id 25
      name LeftFoot
      direction 0.000000 -0.258819 0.965926
      length 4.831116
      axis 15.0 0.0 0.0 xyz
      dof rx ry rz
   end
   begin
      id 26
      name LeftToeBase
      direction 0.000000 0.000000 1.000000
      length 2.952750
      axis 0.0 0.0 0.0 xyz
      dof rx ry rz
   end
   begin
      id 27
      name RightUpLeg
      direction 0.000000 -1.000000 0.000000
      length 16.490845
      axis 0.0 0.0 0.0 xyz
      dof rx ry rz
   end
   begin
      id 28
      name RightLeg
      direction 0.000000 -1.000000 0.000000
      length 14.556576
      axis 0.0 0.0 0.0 xyz
      dof rx ry rz
   end
   begin
      id 29
      name RightFoot
      direction 0.000000 -0.258819 0.965926
      length 4.831116
      axis 15.0 0.0 0.0 xyz
      dof rx ry rz
   end
   begin
      id 30
      name RightToeBase
      direction 0.000000 0.000000 1.000000
      length 2.952750
      axis 0.0 0.0 0.0 xyz
      dof rx ry rz
   end
:hierarchy
   begin
      root Spine_dum LeftUpLeg_dum RightUpLeg_dum
      Spine_dum Spine
      LeftUpLeg_dum LeftUpLeg
      RightUpLeg_dum RightUpLeg
      Spine Spine_dum1 Spine_dum2 Spine_dum3
      Spine_dum1 Head
      Spine_dum2 LeftShoulder
      Spine_dum3 RightShoulder
      LeftShoulder LeftArm
      LeftArm LeftForeArm
      LeftForeArm LeftHand
      LeftHand LeftHand_dum1 LeftHand_dum2
      LeftHand_dum1 LeftHandThumb1
      RightShoulder RightArm
      RightArm RightForeArm
      RightForeArm RightHand
      RightHand RightHand_dum1 RightHand_dum2
      RightHand_dum1 RightHandThumb1
      LeftUpLeg LeftLeg
      LeftLeg LeftFoot
      LeftFoot LeftToeBase
      RightUpLeg RightLeg
      RightLeg RightFoot
      RightFoot RightToeBase
   end

# File created by Blade
# Date/Time:  Wed Sep 24 20:21:23 2014
# Frame Rate: 120.000 fps
#------------------------------------------------------
:FULLY-SPECIFIED
:DEGREES
85
root -4.515606 32.692905 -4.677181 11.863425 2.618196 -0.642785
Spine -9.628278 2.940191 3.105299
Head -10.804354 -5.526156 6.635016
LeftShoulder -10.361975 16.221110 22.872791
LeftArm 27.855792 -23.883749 -43.009931
LeftForeArm -2.960170 -0.000000 19.456394
LeftHand -26.302683 -0.000000 -0.086371
LeftHandThumb1 -26.253704 0.000000 33.147579
RightShoulder -17.648971 12.557922 -35.630096
RightArm -11.175085 1.913421 45.471688
RightForeArm -29.097103 -0.000000 18.073853
RightHand -10.616374 -0.000000 6.682787
RightHandThumb1 -24.326973 -0.000000 -32.862282
LeftUpLeg -9.104632 10.339502 2.468124
LeftLeg 4.909106 -0.000000 -0.000000
LeftFoot -15.301568 9.616808 -18.622305
LeftToeBase 7.155886 -0.000000 -0.000000
RightUpLeg -13.769685 -3.037240 1.892019
RightLeg 12.869307 -0.000000 -0.000000
RightFoot -13.814963 -10.763407 -7.174261
RightToeBase 0.685834 -0.000000 -0.000000
86
root -4.557275 32.687863 -4.683869 11.791952 2.559930 -0.562610
Spine -9.459621 2.885301 3.083875
Head -10.866078 -5.421207 6.503992
LeftShoulder -10.237824 15.990815 22.745179
LeftArm 28.043321 -23.581579 -43.391810
LeftForeArm -3.391551 -0.000000 19.723899
LeftHand -26.423759 0.000000 0.109889
LeftHandThumb1 -26.253704 0.000000 33.147579
RightShoulder -17.576371 12.681151 -35.565252
RightArm -11.315206 1.717467 45.972944
RightForeArm -29.289363 -0.000000 18.065434
RightHand -10.255408 -0.000000 6.596037
RightHandThumb1 -24.326973 -0.000000 -32.862282
LeftUpLeg -9.224008 10.490932 2.439704
LeftLeg 5.291168 -0.000000 -0.000000
LeftFoot -15.382398 9.523446 -18.642932
LeftToeBase 7.100323 -0.000000 -0.000000
RightUpLeg -13.925370 -3.048403 1.894245
RightLeg 13.313025 -0.000000 -0.000000
RightFoot -13.984898 -10.802869 -7.256222
RightToeBase 0.692780 -0.000000 -0.000000
87
root -4.608445 32.684719 -4.705785 11.777644 2.563954 -0.516174
Spine -9.322114 2.809454 3.073074
Head -10.971196 -5.370182 6.442900
LeftShoulder -10.040424 15.820658 22.686263
LeftArm 28.243621 -23.559406 -43.989461
LeftForeArm -3.353449 -0.000000 20.108110
LeftHand -26.341148 0.000000 -0.417515
LeftHandThumb1 -26.253704 0.000000 33.147579
RightShoulder -17.475559 12.750189 -35.412779
RightArm -11.398701 1.582811 46.413741
RightForeArm -29.284227 -0.000000 17.993569
RightHand -10.090564 -0.000000 6.677994
RightHandThumb1 -24.326973 -0.000000 -32.862282
LeftUpLeg -9.391894 10.262175 2.508643
LeftLeg 5.596773 -0.000000 -0.000000
LeftFoot -15.515505 9.686778 -18.835793
LeftToeBase 7.100658 -0.000000 -0.000000
RightUpLeg -14.032105 -2.775227 1.902984
RightLeg 13.490886 -0.000000 -0.000000
RightFoot -13.991287 -11.090606 -7.304421
RightToeBase 0.690938 -0.000000 -0.000000
88
root -4.659351 32.680635 -4.727128 11.755970 2.632325 -0.440687
Spine -9.181389 2.689076 3.048234
Head -11.067277 -5.323593 6.345573
LeftShoulder -9.832069 15.549428 22.647411
LeftArm 28.401465 -23.118185 -44.357985
LeftForeArm -3.808340 0.000000 20.345169
LeftHand -26.345919 -0.000000 -0.378616
LeftHandThumb1 -26.253704 0.000000 33.147579
RightShoulder -17.495238 12.734969 -35.300471
RightArm -11.280314 1.436615 46.914127
RightForeArm -29.145196 0.000000 17.848424
RightHand -10.217987 -0.000000 6.905674
RightHandThumb1 -24.326973 -0.000000 -32.862282
LeftUpLeg -9.692518 10.374477 2.504026
LeftLeg 6.153196 -0.000000 -0.000000
LeftFoot -15.590874 9.482095 -18.879609
LeftToeBase 7.074230 -0.000000 -0.000000
RightUpLeg -14.197978 -2.733830 1.926362
RightLeg 13.818897 -0.000000 -0.000000
RightFoot -14.107800 -11.263199 -7.343761
RightToeBase 0.779552 -0.000000 -0.000000
89
root -4.706407 32.675834 -4.744291 11.734485 2.607091 -0.353283
Spine -9.043058 2.614356 3.017546
Head -11.173116 -5.276591 6.180680
LeftShoulder -9.731739 15.466760 22.560081
LeftArm 28.765803 -22.879511 -44.918926
LeftForeArm -3.872958 -0.000000 20.586031
LeftHand -26.219813 -0.000000 -0.555353
LeftHandThumb1 -26.253704 0.000000 33.147579
RightShoulder -17.473869 12.750349 -35.225411
RightArm -11.242688 1.255406 47.469147
RightForeArm -29.185762 -0.000000 17.746595
RightHand -10.138901 -0.000000 6.907095
RightHandThumb1 -24.326973 -0.000000 -32.862282
LeftUpLeg -9.888844 10.358045 2.500691
LeftLeg 6.552026 -0.000000 -0.000000
LeftFoot -15.689520 9.453594 -18.983042
LeftToeBase 7.080821 -0.000000 -0.000000
RightUpLeg -14.353162 -2.571024 1.897921
RightLeg 14.146890 -0.000000 -0.000000
RightFoot -14.253437 -11.441452 -7.316952
RightToeBase 0.828790 -0.000000 -0.000000
